<svg width="25" height="23" viewBox="0 0 25 23" fill="none" xmlns="http://www.w3.org/2000/svg">
<path d="M8.1875 14.3555H11.4414L13.123 16.5703C14.2578 15.3945 14.9277 13.5625 14.9141 11.1016C14.9277 6.57617 12.6582 4.12891 9.41797 4.12891C6.19141 4.12891 3.9082 6.57617 3.92188 11.1016C3.9082 15.627 6.19141 18.0742 9.41797 18.0742C9.9375 18.0742 10.4297 18.0059 10.8945 17.8828L8.1875 14.3555ZM0.339844 11.1016C0.326172 4.70312 4.20898 0.929688 9.41797 0.929688C14.5996 0.929688 18.5098 4.70312 18.4961 11.1016C18.5098 14.6973 17.2793 17.459 15.2832 19.1953L18.0312 22.7227H14.5586L12.9043 20.6309C11.8379 21.0547 10.6621 21.2734 9.41797 21.2734C4.20898 21.2734 0.326172 17.4863 0.339844 11.1016ZM22.4336 21.2188C21.2578 21.2188 20.2871 20.2617 20.3008 19.0859C20.2871 17.9375 21.2578 16.9941 22.4336 16.9805C23.5684 16.9941 24.5391 17.9375 24.5391 19.0859C24.5391 20.2617 23.5684 21.2188 22.4336 21.2188Z" fill="#204598"/>
</svg>
